<?xml version="1.0" encoding="iso-8859-1"?>
<!-- Uploaded to: SVG Repo, www.svgrepo.com, Generator: SVG Repo Mixer Tools -->
<svg fill="#000000" height="800px" width="800px" version="1.1" id="Layer_1" xmlns="http://www.w3.org/2000/svg" xmlns:xlink="http://www.w3.org/1999/xlink" 
	 viewBox="0 0 511.985 511.985" xml:space="preserve">
<g>
	<g>
		<path d="M437.169,155.542h-42.238l21.375,14.889l-62.414-23.013l-13.985-58.863c-2.256-9.496-11.8-15.168-21.051-12.975
			c-0.003,0.001-0.006,0.001-0.009,0.001c-9.409,2.235-15.205,11.674-12.973,21.06l16.153,67.987
			c2.39,10.059,11.053,12.4,13.712,13.38c26.61-4.655,51.536,13.197,56.111,39.327c3.955,22.589-8.445,44.247-28.67,52.868
			c0,0-0.538,14.495-0.538,219.626c0,12.237,9.919,22.156,22.156,22.156c3.314,0,6.445-0.748,9.268-2.051
			c-3.501-5.887-5.519-12.759-5.519-20.105v-159.98h17.232v159.981c0,12.237,9.919,22.156,22.156,22.156s22.156-9.919,22.156-22.156
			V328.437c7.982-3.048,13.662-10.757,13.662-19.811c0-12.169,0-111.93,0-124.654C463.752,168.27,451.85,155.542,437.169,155.542z"
			/>
	</g>
</g>
<g>
	<g>
		<circle cx="413.262" cy="91.374" r="51.716"/>
	</g>
</g>
<g>
	<g>
		<circle cx="193.811" cy="55.326" r="55.326"/>
	</g>
</g>
<g>
	<g>
		<path d="M368.85,221.361c-2.388-13.637-15.38-22.755-29.015-20.368l-91.18,15.965l-59.793-53.422l22.075,11.535
			c4.721-19.383-6.666-39.204-26.018-44.748c-25.778-7.385-53.468-3.672-76.391,10.243s-38.993,36.769-44.334,63.046l-15.861,78.021
			c-3.952,19.438,1.037,39.623,13.588,54.983c11.983,14.665,29.653,23.429,48.489,24.195c5.262,1.188,1.768,0.76,79.286,0.533
			l-83.354,100.639c-10.597,12.793-8.816,31.756,3.979,42.353c12.801,10.603,31.763,8.807,42.353-3.979L276.99,350.261
			c7.444-8.988,9.018-21.472,4.037-32.026c-4.97-10.529-15.565-17.24-27.202-17.24c-0.029,0-0.059,0-0.088,0l-78.904,0.231
			l14.407-50.284l-33.78-50.025l68.854,61.517c5.78,5.164,13.551,7.309,21.023,5.997l103.146-18.059
			C362.118,247.987,371.237,234.997,368.85,221.361z"/>
	</g>
</g>
</svg>