<svg width="45" height="16" xmlns="http://www.w3.org/2000/svg" xmlns:xlink="http://www.w3.org/1999/xlink" xml:space="preserve" overflow="hidden"><defs><clipPath id="clip0"><rect x="0" y="0" width="45" height="16"/></clipPath><clipPath id="clip1"><rect x="0" y="0" width="45" height="16"/></clipPath></defs><g clip-path="url(#clip0)"><g clip-path="url(#clip1)"><path d="M1.60302 1.60302 44.6597 1.60302 44.6597 15.9459 1.60302 15.9459Z" fill="#00407A" fill-rule="nonzero" fill-opacity="1" transform="matrix(1.00825 0 0 1 1.20648e-15 0.027062)"/><path d="M0 0 0 15.9459 1.60302 15.9459 1.60302 1.60302 44.6316 1.60302 44.6316 0Z" fill="#54BCEB" fill-rule="nonzero" fill-opacity="1" transform="matrix(1.00825 0 0 1 1.20648e-15 0.027062)"/><path d="M4.78095 6.38398 6.21524 6.38398 6.21524 8.04325 7.48078 6.38398 9.22442 6.38398 7.53703 8.24011 9.47753 11.1649 7.70577 11.1649 6.55271 9.30879 6.15899 9.75876 6.15899 11.1649 4.78095 11.1649 4.78095 6.38398ZM13.8085 9.30879C13.8085 10.6306 13.1054 11.2774 11.6993 11.2774 10.2931 11.2774 9.59002 10.6306 9.59002 9.30879L9.59002 6.38398 11.0243 6.38398 11.0243 8.99944C11.0243 9.47753 11.0243 10.0962 11.7274 10.0962 12.4023 10.0962 12.4023 9.47753 12.4023 8.99944L12.4023 6.38398 13.8366 6.38398 13.8366 9.30879ZM15.8896 6.38398 17.3239 6.38398 17.3239 9.9275 19.3488 9.9275 19.3488 11.1649 15.8896 11.1649 15.8896 6.38398ZM19.7706 6.38398 23.5673 6.38398 23.5673 7.59327 21.1768 7.59327 21.1768 8.18386 23.3423 8.18386 23.3423 9.30879 21.1768 9.30879 21.1768 9.89938 23.6235 9.89938 23.6235 11.1368 19.7706 11.1368 19.7706 6.38398ZM28.2357 9.30879C28.2357 10.6306 27.5327 11.2774 26.1265 11.2774 24.7203 11.2774 24.0172 10.6306 24.0172 9.30879L24.0172 6.38398 25.4515 6.38398 25.4515 8.99944C25.4515 9.47753 25.4515 10.0962 26.1546 10.0962 26.8296 10.0962 26.8296 9.47753 26.8296 8.99944L26.8296 6.38398 28.2639 6.38398 28.2639 9.30879ZM31.4137 11.1649 29.8106 11.1649 28.4326 6.38398 29.8669 6.38398 30.6262 9.28067 31.3855 6.38398 32.8479 6.38398 31.4137 11.1649ZM33.0448 6.38398 36.8414 6.38398 36.8414 7.59327 34.451 7.59327 34.451 8.18386 36.6165 8.18386 36.6165 9.30879 34.451 9.30879 34.451 9.89938 36.8977 9.89938 36.8977 11.1368 33.0448 11.1368 33.0448 6.38398ZM37.2914 6.38398 38.7538 6.38398 40.1037 8.94319 40.1037 6.38398 41.4537 6.38398 41.4537 11.1649 40.0756 11.1649 38.6695 8.54946 38.6695 11.1649 37.3195 11.1649 37.3195 6.38398Z" fill="#FFFFFF" fill-rule="nonzero" fill-opacity="1" transform="matrix(1.00825 0 0 1 1.20648e-15 0.027062)"/></g></g></svg>